<svg version="1.1" id="Layer_1" xmlns="http://www.w3.org/2000/svg" xmlns:xlink="http://www.w3.org/1999/xlink" x="0px" y="0px"
	 width="100%" viewBox="0 0 1080 1080" enable-background="new 0 0 1080 1080" xml:space="preserve">
<path fill="#000000" opacity="1.000000" stroke="none" 
	d="
M716.000000,1081.000000 
	C477.360809,1081.000000 239.221634,1081.000000 1.041225,1081.000000 
	C1.041225,721.069031 1.041225,361.138062 1.041225,1.103538 
	C360.889404,1.103538 720.778870,1.103538 1080.834229,1.103538 
	C1080.834229,360.999939 1080.834229,720.999939 1080.834229,1081.000000 
	C959.470947,1081.000000 837.985474,1081.000000 716.000000,1081.000000 
M237.050186,567.696106 
	C238.791290,561.937927 240.532394,556.179749 242.378769,550.073425 
	C242.883774,550.823792 243.146744,551.072571 243.240601,551.374084 
	C253.469650,584.229980 263.927368,617.018066 273.735199,649.999451 
	C276.217957,658.348511 276.740509,667.299072 277.921478,676.006104 
	C278.303772,678.824890 277.393524,680.995056 273.775757,681.516479 
	C269.424622,682.143555 269.478882,685.260498 270.596252,688.675171 
	C297.878082,688.675171 324.897797,688.675171 351.917511,688.675171 
	C352.216888,688.226440 352.516296,687.777649 352.815704,687.328918 
	C350.561462,685.492004 348.484436,682.418640 346.017578,682.065125 
	C340.144623,681.223450 337.455231,677.380981 335.057404,672.953735 
	C324.200348,652.907776 318.641632,630.943359 311.762573,609.250122 
	C318.486542,608.477600 324.822205,607.749756 330.044922,607.149719 
	C328.958191,601.659546 326.945587,596.690491 327.259979,591.873413 
	C327.742889,584.474182 329.200348,576.987610 331.380585,569.886963 
	C334.380249,560.117554 341.096252,553.338318 351.098450,550.294495 
	C360.751495,547.356934 370.273285,548.854309 379.519501,551.957336 
	C381.417175,552.594238 383.473541,555.345215 383.871857,557.425293 
	C385.838837,567.697815 387.415100,578.052673 388.846100,588.417603 
	C389.817993,595.457458 387.093903,601.570801 382.040955,607.361389 
	C402.002716,609.212891 420.829834,609.666565 439.952728,605.402161 
	C434.058899,602.765930 430.881470,598.503113 429.511993,592.582520 
	C427.640350,584.490967 425.408295,576.482910 423.338379,568.437134 
	C421.380035,560.824890 422.585175,557.469971 429.021088,552.563110 
	C437.460022,546.129089 439.590820,534.037598 433.833252,525.255859 
	C430.348297,519.940430 425.153961,517.840027 419.440125,519.436829 
	C418.387604,522.751709 422.340607,526.953247 417.454346,529.980347 
	C416.673004,526.849670 415.781952,524.039978 415.282074,521.162292 
	C408.195129,480.364288 401.241272,439.542938 394.044128,398.764496 
	C392.672516,390.992950 392.651001,383.870575 398.523010,377.794495 
	C398.897949,377.406494 398.863983,376.623260 399.150024,375.526367 
	C379.622009,373.460175 360.491333,373.040283 340.489258,376.507965 
	C347.508545,383.474457 346.023773,391.340515 344.311127,399.267395 
	C338.350983,426.852722 332.571045,454.477905 326.441681,482.025452 
	C320.016266,510.903809 313.302063,539.718201 306.615814,568.537781 
	C305.781525,572.133850 304.346924,575.590698 302.767426,580.400330 
	C295.598450,557.465820 288.812256,535.940308 282.231506,514.352112 
	C281.707489,512.633118 282.337891,510.403412 282.879822,508.541382 
	C296.262421,462.558441 309.481354,416.525665 323.279388,370.667236 
	C327.236694,357.514862 332.723877,344.804871 337.875641,332.039764 
	C339.632660,327.686157 342.585419,324.283386 348.157013,323.743225 
	C351.506714,323.418457 353.722687,320.644958 354.040802,316.460022 
	C333.684723,316.460022 313.721741,316.417786 293.760315,316.574585 
	C292.669220,316.583130 290.534332,318.608582 290.694855,319.083038 
	C291.302704,320.879730 292.525757,323.707458 293.754761,323.832733 
	C298.234711,324.289276 299.074097,327.196533 298.709961,330.450317 
	C297.844482,338.183868 297.277710,346.082123 295.201019,353.526276 
	C285.773956,387.318726 275.868866,420.977905 266.114685,454.678925 
	C265.842072,455.620880 265.332031,456.494080 264.599091,458.155701 
	C254.090363,424.693298 243.622742,392.240753 233.817444,359.589325 
	C230.974518,350.122467 229.879349,340.109558 228.318771,330.293549 
	C227.924347,327.812653 228.147781,324.682373 231.908279,324.231750 
	C236.766876,323.649506 236.648804,320.529816 235.842026,316.880493 
	C208.696503,316.880493 181.687332,316.880493 154.678146,316.880493 
	C154.396942,317.395538 154.115738,317.910553 153.834534,318.425598 
	C156.302460,320.296234 158.548767,323.216858 161.289444,323.795380 
	C165.571854,324.699371 168.293091,326.921783 170.019501,330.418823 
	C173.838806,338.155212 178.184433,345.777679 180.815231,353.930695 
	C195.725098,400.137451 210.217590,446.479065 224.720673,492.815948 
	C225.312485,494.706757 224.986710,497.126160 224.414673,499.104462 
	C211.298233,544.466675 198.349564,589.880615 184.733414,635.093201 
	C180.726639,648.397705 174.958878,661.192261 169.615570,674.061646 
	C167.967590,678.030701 165.016693,681.157349 160.009232,681.754456 
	C156.251572,682.202454 154.048309,684.791199 153.788742,688.761475 
	C175.010788,688.761475 195.937988,688.761475 216.858887,688.761475 
	C218.190704,684.611084 217.047531,682.385803 212.871368,681.109314 
	C211.265457,680.618408 209.218658,678.065063 209.222397,676.455750 
	C209.234665,671.167236 209.353317,665.675354 210.750626,660.626770 
	C219.266678,629.857910 228.147476,599.190063 237.050186,567.696106 
M890.102173,647.475220 
	C893.139343,652.636780 896.141174,657.819458 899.220276,662.955872 
	C908.511292,678.454285 922.136353,686.959290 940.147156,688.893555 
	C965.446594,691.610657 985.770386,669.109131 986.943420,645.341614 
	C988.526978,613.254883 970.725098,587.926758 939.781921,578.079163 
	C925.448303,573.517517 910.955872,573.531555 896.342834,575.981445 
	C892.737732,576.585938 890.589478,575.634216 888.824219,572.277466 
	C881.518005,558.384216 871.525574,546.665466 859.193787,536.955872 
	C858.030273,536.039734 856.688171,535.350220 854.388550,533.898865 
	C859.479736,531.740173 862.754395,530.251648 866.101257,528.948303 
	C892.853943,518.530090 911.816895,500.365143 921.596191,473.110870 
	C927.959961,455.375458 929.317444,437.139374 927.216003,418.477020 
	C921.825134,370.603180 880.133301,331.159210 831.937561,329.088440 
	C810.808533,328.180634 789.639160,328.168274 768.486206,327.900757 
	C765.319275,327.860718 762.141846,328.653442 757.520386,329.247009 
	C760.000122,331.144806 761.244934,332.124207 762.517395,333.066437 
	C766.900330,336.312195 769.602844,340.644287 770.030090,346.051758 
	C770.750916,355.175232 771.595947,364.322876 771.616821,373.462097 
	C771.756470,434.618988 771.820251,495.776764 771.616882,556.933289 
	C771.554321,575.740906 770.545105,594.544617 770.045349,613.352112 
	C769.903137,618.703674 767.948425,622.940857 763.560547,626.150452 
	C761.858459,627.395447 760.560852,629.193481 759.079041,630.739563 
	C759.303406,631.366516 759.527771,631.993408 759.752136,632.620361 
	C776.267761,632.620361 792.783386,632.620361 809.299011,632.620361 
	C809.494690,633.256958 809.690369,633.893555 809.886047,634.530151 
	C803.544250,640.536987 797.377136,646.742310 790.823242,652.508118 
	C778.243591,663.574951 763.152100,665.864685 747.334778,663.127930 
	C735.749146,661.123291 735.853882,660.497803 730.430908,671.141785 
	C730.002502,671.982666 729.662964,672.868958 729.207031,673.904785 
	C730.384155,674.294250 731.304016,674.813660 732.256042,674.881714 
	C750.722656,676.202209 769.138611,676.864807 787.404358,672.548950 
	C792.401306,671.368225 796.083923,669.065186 799.268311,665.076660 
	C813.396179,647.381470 827.662415,629.795410 842.021362,612.286926 
	C846.914856,606.320129 852.906433,601.627380 860.650635,598.526978 
	C870.385498,614.703552 880.056824,630.774597 890.102173,647.475220 
M679.389648,718.888428 
	C692.517883,704.747192 706.311340,691.150330 718.507690,676.246521 
	C725.103149,668.186890 729.283386,658.048523 733.942993,648.548645 
	C736.402893,643.533447 733.628906,639.234802 729.651550,635.847656 
	C725.826782,632.590332 722.192688,633.976990 718.730286,636.437134 
	C711.005737,641.925781 703.167419,647.275818 695.692505,653.090027 
	C680.853943,664.631653 666.634033,677.004517 651.445190,688.053406 
	C593.197021,730.425415 530.875366,765.506348 463.902893,792.317078 
	C431.480255,805.296570 399.448334,819.259460 367.336761,833.004272 
	C356.836639,837.498718 347.424622,843.783142 340.285675,852.959900 
	C334.428009,860.489624 333.443024,868.624878 337.505920,877.317993 
	C342.492584,887.987427 349.665344,896.856506 359.886841,902.795776 
	C374.178314,911.100098 388.939545,913.918884 404.400085,905.461304 
	C409.493256,902.675049 414.906525,900.469666 420.194031,898.043579 
	C516.906616,853.667603 603.363403,794.443176 679.389648,718.888428 
M627.814270,394.793732 
	C628.210815,387.185730 631.644409,380.983856 638.474792,375.174927 
	C602.453857,372.534424 568.209290,373.774445 532.976746,375.548706 
	C538.652527,382.407806 540.159973,389.048431 538.387512,396.848297 
	C529.028809,438.030396 519.974487,479.281616 510.731079,520.490112 
	C508.828339,528.972839 506.570435,537.375854 504.476227,545.815552 
	C503.953400,545.841309 503.430573,545.867065 502.907745,545.892822 
	C501.979340,542.014587 500.834442,538.173767 500.155884,534.252258 
	C493.149384,493.760406 485.994843,453.291779 479.401001,412.732269 
	C477.397827,400.410492 471.125092,387.298065 483.178772,376.178650 
	C472.511780,372.443695 432.781250,373.167999 425.394257,377.012177 
	C433.983063,383.852814 435.802124,386.554596 437.973846,398.142670 
	C444.712738,434.101105 451.538971,470.046021 457.865570,506.077942 
	C462.812653,534.253052 467.073792,562.548645 471.620209,590.793884 
	C472.432526,595.840515 471.798096,600.350830 467.261932,603.727173 
	C466.018036,604.653076 465.463593,606.505371 464.463440,608.144470 
	C475.791077,610.412720 520.839355,609.215698 524.764343,607.228943 
	C523.116394,602.565186 520.913452,598.182434 520.149841,593.561768 
	C519.578125,590.102112 520.564697,586.269592 521.362000,582.716309 
	C533.226562,529.840820 545.006470,476.945129 557.224915,424.151093 
	C560.217773,411.219360 564.576721,398.592621 568.576355,385.910370 
	C570.244751,380.619995 574.584656,378.301941 579.857483,379.065643 
	C584.455017,379.731537 587.364868,382.799896 587.798767,387.869232 
	C588.508606,396.162445 589.551392,404.469971 589.566406,412.773041 
	C589.669067,469.597717 589.543762,526.422791 589.482727,583.247742 
	C589.473450,591.851074 587.910828,599.846008 580.586670,605.556580 
	C580.335754,605.752258 580.458069,606.426575 580.408508,606.860046 
	C591.965454,609.763489 623.521362,609.381958 635.855408,606.224976 
	C626.439941,595.135315 627.889038,591.320679 627.433350,580.664856 
	C626.849976,567.023193 627.045227,553.343201 627.097290,539.680420 
	C627.280090,491.691986 627.545410,443.703888 627.814270,394.793732 
M717.811523,512.417480 
	C712.523376,516.764160 706.401611,518.274170 699.654175,518.018250 
	C692.702576,517.754395 691.985840,517.174500 691.984497,510.179474 
	C691.976990,472.021606 691.991150,433.863770 691.997742,395.705902 
	C691.998169,393.279694 691.997742,390.853485 691.997742,388.240173 
	C699.668091,388.240173 706.503784,387.844574 713.275391,388.335083 
	C722.865051,389.029694 726.894104,393.678894 726.964905,403.245728 
	C726.988281,406.400452 726.677307,409.559998 726.465332,412.713745 
	C725.650818,424.829773 724.471130,436.933929 724.102356,449.063019 
	C723.840820,457.667114 727.717102,464.529114 735.674438,468.511719 
	C745.787903,473.573517 759.414429,466.595245 759.501709,456.407318 
	C759.562134,449.354126 752.856812,445.301788 746.739929,448.698883 
	C745.327087,449.483521 743.926575,450.290375 741.415405,451.712952 
	C742.197998,446.853699 742.518555,442.941345 743.483765,439.195068 
	C748.296326,420.516144 753.387756,401.908752 758.149353,383.217194 
	C760.197998,375.175415 758.914795,373.701935 750.537781,373.694000 
	C717.545532,373.662811 684.553101,373.679932 651.561218,373.804871 
	C648.627502,373.815979 645.697205,374.735901 642.765320,375.233765 
	C651.888489,381.490051 653.692322,390.084564 653.805603,399.467468 
	C653.821655,400.800262 653.865173,402.132965 653.865662,403.465698 
	C653.888428,462.951721 653.879944,522.437805 653.957214,581.923706 
	C653.968872,590.890259 652.637573,599.202637 645.266174,605.381470 
	C644.879456,605.705627 644.887146,606.500244 644.424438,608.014282 
	C683.517029,608.014282 722.042297,608.014282 761.141602,608.014282 
	C755.481018,580.256775 753.883789,553.408386 760.632202,526.668823 
	C751.634644,522.912170 746.569397,525.556458 744.850525,534.677185 
	C744.420471,536.959473 744.171875,539.280396 743.929321,541.592896 
	C742.674561,553.556702 740.518555,565.271301 735.039795,576.161377 
	C727.077026,591.988770 713.958618,598.271240 696.609314,594.666321 
	C693.266785,593.971741 691.920227,592.589722 691.953613,589.018494 
	C692.106201,572.690674 692.074402,556.359680 691.921753,540.031555 
	C691.883240,535.913330 693.852539,534.325623 697.560059,534.050476 
	C704.750366,533.516968 711.456604,534.814087 717.400085,539.161011 
	C719.077759,540.388062 720.863892,541.466797 723.152100,542.978027 
	C725.737915,531.218262 725.642578,520.351440 722.948853,508.783356 
	C721.024414,510.109161 719.688293,511.029663 717.811523,512.417480 
M607.293213,637.951904 
	C585.145508,638.503784 563.000366,639.207397 540.849609,639.577271 
	C487.531372,640.467712 434.210388,641.191528 380.891174,642.025269 
	C377.742218,642.074463 374.574097,642.330933 371.458954,642.789917 
	C366.322998,643.546631 363.098450,646.486084 361.937836,651.667969 
	C360.812439,656.692505 359.340607,661.645630 358.379883,666.698364 
	C357.821472,669.635132 357.969208,672.706116 357.799225,675.716736 
	C359.329468,674.623962 359.745026,673.404724 360.092682,672.166382 
	C361.439606,667.368225 362.437897,662.442139 364.172302,657.789673 
	C367.010345,650.176941 370.972229,647.779907 379.060913,647.984070 
	C382.724304,648.076477 386.389435,648.395996 390.048309,648.325745 
	C431.024963,647.538818 471.997955,646.497620 512.977661,645.967224 
	C528.937378,645.760681 544.928772,646.341858 560.873474,647.178894 
	C573.036987,647.817322 579.435120,655.009460 578.590088,666.077698 
	C577.823486,676.117737 575.726746,685.826172 570.338501,694.566528 
	C569.564270,695.822510 569.089905,697.263428 568.476807,698.618774 
	C569.112732,698.963745 569.748657,699.308716 570.384583,699.653687 
	C572.586365,696.129944 575.208435,692.794128 576.887573,689.036804 
	C579.188721,683.887695 580.696655,678.389526 582.684631,673.093628 
	C585.588318,665.358154 588.878479,663.129761 597.056519,663.801270 
	C615.810181,665.341187 634.578491,666.788391 653.280640,668.826111 
	C660.916931,669.658203 667.330261,668.233154 673.079834,663.204468 
	C679.718811,657.397827 686.471741,651.721497 693.605225,645.620911 
	C678.335815,639.939026 637.167786,636.392578 607.293213,637.951904 
M408.964874,320.540558 
	C404.224457,314.130219 399.470520,307.729858 394.746857,301.307190 
	C388.355133,292.616394 381.342285,284.295349 375.812469,275.085266 
	C371.406219,267.746582 373.561554,259.918335 378.640167,253.185028 
	C381.132904,249.880020 384.753113,249.040604 388.501556,250.342178 
	C392.145355,251.607437 393.911957,254.635895 393.913574,258.501495 
	C393.914307,260.320648 393.529846,262.136475 393.422363,263.959839 
	C393.119751,269.094055 392.419006,274.259003 392.730835,279.359528 
	C393.023987,284.153778 397.174622,287.129150 401.443359,285.817780 
	C403.513580,285.181793 405.595215,283.174866 406.608246,281.233643 
	C406.986572,280.508667 404.457153,278.086090 403.023773,276.670227 
	C402.280823,275.936310 401.036072,275.710358 399.864319,275.186188 
	C402.104828,266.784302 404.100067,258.561920 406.531372,250.470581 
	C407.922333,245.841568 406.550537,243.919479 401.919769,242.818008 
	C392.717133,240.629089 383.731720,241.115616 374.899536,244.088745 
	C361.224731,248.692032 354.356201,261.175110 358.859802,274.974976 
	C360.967926,281.434631 364.917328,287.519501 369.003784,293.057281 
	C376.105072,302.680603 384.291107,311.502747 391.406494,321.116577 
	C398.501251,330.702454 397.929230,344.816376 390.922089,354.368225 
	C385.775757,361.383514 377.365509,360.841614 373.125977,353.210846 
	C369.792694,347.211365 369.709564,341.214752 372.939178,335.095428 
	C373.609863,333.824646 374.284485,331.755707 373.716919,330.765747 
	C370.745178,325.581940 362.079681,325.295776 358.935211,330.388977 
	C357.340271,332.972321 356.240509,336.202576 356.000793,339.226288 
	C354.379883,359.670197 374.111847,373.257599 393.649963,365.323639 
	C410.271301,358.574127 417.044006,339.494415 408.964874,320.540558 
M463.623596,301.160095 
	C460.351440,286.670380 451.862213,279.078918 437.078857,277.868530 
	C432.298279,277.477112 427.441345,278.083405 422.645142,277.798706 
	C417.926514,277.518555 416.725647,279.579559 416.759735,283.978577 
	C416.933594,306.442322 416.855072,328.908020 416.891449,351.372986 
	C416.894287,353.131317 417.101196,354.889343 417.210724,356.607788 
	C418.720673,356.874939 419.693451,357.166870 420.675568,357.202606 
	C433.464142,357.667450 431.415771,356.150604 430.385590,347.194946 
	C429.929932,343.234070 431.301727,339.062988 431.843933,334.987305 
	C432.603455,334.869934 433.362976,334.752563 434.122467,334.635162 
	C437.384521,339.936920 440.668579,345.225281 443.902802,350.543976 
	C447.618652,356.654633 453.201324,358.309479 460.685638,355.094482 
	C456.154663,347.927979 451.663361,340.824249 447.299652,333.922302 
	C451.734467,329.193481 456.388000,325.079742 459.969452,320.182037 
	C463.812531,314.926666 464.574127,308.515381 463.623596,301.160095 
M570.466125,666.175964 
	C570.478638,665.012573 570.565552,663.844360 570.491760,662.686462 
	C569.942749,654.073853 567.978210,651.950012 559.463562,651.073486 
	C555.002563,650.614319 550.514587,650.095215 546.041809,650.121094 
	C504.268372,650.363037 462.495483,650.713928 420.722656,651.056335 
	C419.539154,651.066040 418.357758,651.330566 417.175354,651.476257 
	C418.307312,652.713867 419.459015,653.090332 420.629395,653.161926 
	C426.268402,653.507019 431.909332,653.877991 437.555328,654.043396 
	C462.811768,654.783325 488.070648,655.004456 513.029785,660.017883 
	C530.772888,663.581848 548.702454,666.218506 566.552795,669.245789 
	C568.407104,669.560242 570.805786,670.622742 570.466125,666.175964 
M501.215118,701.734192 
	C487.894012,701.638733 474.572937,701.469788 461.251831,701.468445 
	C448.097321,701.467163 434.941742,701.559814 421.788635,701.750366 
	C408.696899,701.940002 395.607666,702.302734 382.517334,702.589600 
	C382.527435,702.985046 382.537506,703.380493 382.547607,703.775940 
	C428.249573,703.775940 473.951538,703.775940 519.653503,703.775940 
	C519.667908,703.248230 519.682251,702.720581 519.696594,702.192871 
	C513.849792,702.043213 508.002960,701.893616 501.215118,701.734192 
M558.381592,676.914612 
	C565.683594,677.633911 569.442139,681.654907 568.760071,689.661011 
	C569.898010,688.817932 570.331238,688.665405 570.375244,688.437622 
	C570.720764,686.650940 571.068542,684.858398 571.272400,683.051514 
	C572.144714,675.319702 571.489807,674.459045 564.070251,672.976929 
	C554.962830,671.157532 545.872925,669.249146 536.754944,667.485596 
	C534.863647,667.119812 532.882263,667.220459 530.942383,667.106079 
	C530.873108,667.618286 530.803772,668.130493 530.734497,668.642700 
	C539.695618,671.320129 548.656799,673.997559 558.381592,676.914612 
z"/>
<path fill="#FDFDFD" opacity="1.000000" stroke="none" 
	d="
M236.978394,568.092285 
	C228.147476,599.190063 219.266678,629.857910 210.750626,660.626770 
	C209.353317,665.675354 209.234665,671.167236 209.222397,676.455750 
	C209.218658,678.065063 211.265457,680.618408 212.871368,681.109314 
	C217.047531,682.385803 218.190704,684.611084 216.858887,688.761475 
	C195.937988,688.761475 175.010788,688.761475 153.788742,688.761475 
	C154.048309,684.791199 156.251572,682.202454 160.009232,681.754456 
	C165.016693,681.157349 167.967590,678.030701 169.615570,674.061646 
	C174.958878,661.192261 180.726639,648.397705 184.733414,635.093201 
	C198.349564,589.880615 211.298233,544.466675 224.414673,499.104462 
	C224.986710,497.126160 225.312485,494.706757 224.720673,492.815948 
	C210.217590,446.479065 195.725098,400.137451 180.815231,353.930695 
	C178.184433,345.777679 173.838806,338.155212 170.019501,330.418823 
	C168.293091,326.921783 165.571854,324.699371 161.289444,323.795380 
	C158.548767,323.216858 156.302460,320.296234 153.834534,318.425598 
	C154.115738,317.910553 154.396942,317.395538 154.678146,316.880493 
	C181.687332,316.880493 208.696503,316.880493 235.842026,316.880493 
	C236.648804,320.529816 236.766876,323.649506 231.908279,324.231750 
	C228.147781,324.682373 227.924347,327.812653 228.318771,330.293549 
	C229.879349,340.109558 230.974518,350.122467 233.817444,359.589325 
	C243.622742,392.240753 254.090363,424.693298 264.599091,458.155701 
	C265.332031,456.494080 265.842072,455.620880 266.114685,454.678925 
	C275.868866,420.977905 285.773956,387.318726 295.201019,353.526276 
	C297.277710,346.082123 297.844482,338.183868 298.709961,330.450317 
	C299.074097,327.196533 298.234711,324.289276 293.754761,323.832733 
	C292.525757,323.707458 291.302704,320.879730 290.694855,319.083038 
	C290.534332,318.608582 292.669220,316.583130 293.760315,316.574585 
	C313.721741,316.417786 333.684723,316.460022 354.040802,316.460022 
	C353.722687,320.644958 351.506714,323.418457 348.157013,323.743225 
	C342.585419,324.283386 339.632660,327.686157 337.875641,332.039764 
	C332.723877,344.804871 327.236694,357.514862 323.279388,370.667236 
	C309.481354,416.525665 296.262421,462.558441 282.879822,508.541382 
	C282.337891,510.403412 281.707489,512.633118 282.231506,514.352112 
	C288.812256,535.940308 295.598450,557.465820 302.767426,580.400330 
	C304.346924,575.590698 305.781525,572.133850 306.615814,568.537781 
	C313.302063,539.718201 320.016266,510.903809 326.441681,482.025452 
	C332.571045,454.477905 338.350983,426.852722 344.311127,399.267395 
	C346.023773,391.340515 347.508545,383.474457 340.489258,376.507965 
	C360.491333,373.040283 379.622009,373.460175 399.150024,375.526367 
	C398.863983,376.623260 398.897949,377.406494 398.523010,377.794495 
	C392.651001,383.870575 392.672516,390.992950 394.044128,398.764496 
	C401.241272,439.542938 408.195129,480.364288 415.282074,521.162292 
	C415.781952,524.039978 416.673004,526.849670 417.454346,529.980347 
	C422.340607,526.953247 418.387604,522.751709 419.442566,519.437256 
	C425.153961,517.840027 430.348297,519.940430 433.833252,525.255859 
	C439.590820,534.037598 437.460022,546.129089 429.021088,552.563110 
	C422.585175,557.469971 421.380035,560.824890 423.338379,568.437134 
	C425.408295,576.482910 427.640350,584.490967 429.511993,592.582520 
	C430.881470,598.503113 434.058899,602.765930 439.952728,605.402161 
	C420.829834,609.666565 402.002716,609.212891 382.040955,607.361389 
	C387.093903,601.570801 389.817993,595.457458 388.846100,588.417603 
	C387.415100,578.052673 385.838837,567.697815 383.871857,557.425293 
	C383.473541,555.345215 381.417175,552.594238 379.519501,551.957336 
	C370.273285,548.854309 360.751495,547.356934 351.098450,550.294495 
	C341.096252,553.338318 334.380249,560.117554 331.380585,569.886963 
	C329.200348,576.987610 327.742889,584.474182 327.259979,591.873413 
	C326.945587,596.690491 328.958191,601.659546 330.044922,607.149719 
	C324.822205,607.749756 318.486542,608.477600 311.762573,609.250122 
	C318.641632,630.943359 324.200348,652.907776 335.057404,672.953735 
	C337.455231,677.380981 340.144623,681.223450 346.017578,682.065125 
	C348.484436,682.418640 350.561462,685.492004 352.815704,687.328918 
	C352.516296,687.777649 352.216888,688.226440 351.917511,688.675171 
	C324.897797,688.675171 297.878082,688.675171 270.596252,688.675171 
	C269.478882,685.260498 269.424622,682.143555 273.775757,681.516479 
	C277.393524,680.995056 278.303772,678.824890 277.921478,676.006104 
	C276.740509,667.299072 276.217957,658.348511 273.735199,649.999451 
	C263.927368,617.018066 253.469650,584.229980 243.240601,551.374084 
	C243.146744,551.072571 242.883774,550.823792 242.378769,550.073425 
	C240.532394,556.179749 238.791290,561.937927 236.978394,568.092285 
M340.012665,529.482849 
	C339.727264,531.867126 339.441895,534.251404 339.128845,536.866577 
	C350.803009,535.502319 361.857910,534.166321 372.924500,532.935303 
	C378.654144,532.297974 379.256165,531.709106 378.298309,526.125427 
	C374.139404,501.881836 369.964172,477.640991 365.730530,453.410370 
	C364.759796,447.854462 363.534119,442.343140 362.425751,436.811279 
	C361.862488,436.833496 361.299255,436.855743 360.735992,436.877960 
	C352.585266,467.162598 345.965820,497.802551 340.012665,529.482849 
z"/>
<path fill="#FDFDFD" opacity="1.000000" stroke="none" 
	d="
M889.915161,647.160400 
	C880.056824,630.774597 870.385498,614.703552 860.650635,598.526978 
	C852.906433,601.627380 846.914856,606.320129 842.021362,612.286926 
	C827.662415,629.795410 813.396179,647.381470 799.268311,665.076660 
	C796.083923,669.065186 792.401306,671.368225 787.404358,672.548950 
	C769.138611,676.864807 750.722656,676.202209 732.256042,674.881714 
	C731.304016,674.813660 730.384155,674.294250 729.207031,673.904785 
	C729.662964,672.868958 730.002502,671.982666 730.430908,671.141785 
	C735.853882,660.497803 735.749146,661.123291 747.334778,663.127930 
	C763.152100,665.864685 778.243591,663.574951 790.823242,652.508118 
	C797.377136,646.742310 803.544250,640.536987 809.886047,634.530151 
	C809.690369,633.893555 809.494690,633.256958 809.299011,632.620361 
	C792.783386,632.620361 776.267761,632.620361 759.752136,632.620361 
	C759.527771,631.993408 759.303406,631.366516 759.079041,630.739563 
	C760.560852,629.193481 761.858459,627.395447 763.560547,626.150452 
	C767.948425,622.940857 769.903137,618.703674 770.045349,613.352112 
	C770.545105,594.544617 771.554321,575.740906 771.616882,556.933289 
	C771.820251,495.776764 771.756470,434.618988 771.616821,373.462097 
	C771.595947,364.322876 770.750916,355.175232 770.030090,346.051758 
	C769.602844,340.644287 766.900330,336.312195 762.517395,333.066437 
	C761.244934,332.124207 760.000122,331.144806 757.520386,329.247009 
	C762.141846,328.653442 765.319275,327.860718 768.486206,327.900757 
	C789.639160,328.168274 810.808533,328.180634 831.937561,329.088440 
	C880.133301,331.159210 921.825134,370.603180 927.216003,418.477020 
	C929.317444,437.139374 927.959961,455.375458 921.596191,473.110870 
	C911.816895,500.365143 892.853943,518.530090 866.101257,528.948303 
	C862.754395,530.251648 859.479736,531.740173 854.388550,533.898865 
	C856.688171,535.350220 858.030273,536.039734 859.193787,536.955872 
	C871.525574,546.665466 881.518005,558.384216 888.824219,572.277466 
	C890.589478,575.634216 892.737732,576.585938 896.342834,575.981445 
	C910.955872,573.531555 925.448303,573.517517 939.781921,578.079163 
	C970.725098,587.926758 988.526978,613.254883 986.943420,645.341614 
	C985.770386,669.109131 965.446594,691.610657 940.147156,688.893555 
	C922.136353,686.959290 908.511292,678.454285 899.220276,662.955872 
	C896.141174,657.819458 893.139343,652.636780 889.915161,647.160400 
M873.036072,377.553314 
	C858.636536,357.705383 839.322205,346.810455 814.002258,344.920044 
	C814.002258,348.668304 814.001465,351.806946 814.002380,354.945557 
	C814.014771,398.912292 814.025452,442.879059 814.041870,486.845795 
	C814.044678,494.339996 814.066101,501.834198 814.091431,509.328369 
	C814.118774,517.397766 815.049194,518.279907 823.188538,517.152344 
	C836.336670,515.330994 848.209839,510.379059 858.303284,501.707489 
	C892.120972,472.653687 898.936890,416.222107 873.036072,377.553314 
M959.264038,603.335632 
	C954.863708,599.137451 951.060791,593.913330 945.949219,590.936401 
	C931.505920,582.525085 915.521118,582.489075 899.436279,584.499329 
	C898.557495,584.609131 897.728210,585.115356 896.696167,585.505005 
	C897.338440,587.097290 897.725159,588.371277 898.336914,589.526062 
	C909.454651,610.514221 920.328918,631.639160 931.912781,652.367432 
	C935.141968,658.145691 940.390381,662.828064 944.901001,667.843689 
	C947.076416,670.262634 949.312012,669.995361 951.642761,667.440063 
	C966.465027,651.189697 970.004456,623.629333 959.264038,603.335632 
M813.634033,593.932007 
	C814.046387,601.072693 814.085876,608.263672 815.038940,615.331421 
	C815.472046,618.543335 817.713928,621.511414 819.400757,625.165100 
	C832.689514,613.526794 844.784607,602.933777 857.134094,592.118042 
	C844.385315,571.676575 833.623352,550.097290 815.229004,534.160645 
	C814.669678,534.378296 814.110352,534.595947 813.551025,534.813599 
	C813.551025,554.208679 813.551025,573.603821 813.634033,593.932007 
z"/>
<path fill="#FCFCFC" opacity="1.000000" stroke="none" 
	d="
M679.138794,719.138062 
	C603.363403,794.443176 516.906616,853.667603 420.194031,898.043579 
	C414.906525,900.469666 409.493256,902.675049 404.400085,905.461304 
	C388.939545,913.918884 374.178314,911.100098 359.886841,902.795776 
	C349.665344,896.856506 342.492584,887.987427 337.505920,877.317993 
	C333.443024,868.624878 334.428009,860.489624 340.285675,852.959900 
	C347.424622,843.783142 356.836639,837.498718 367.336761,833.004272 
	C399.448334,819.259460 431.480255,805.296570 463.902893,792.317078 
	C530.875366,765.506348 593.197021,730.425415 651.445190,688.053406 
	C666.634033,677.004517 680.853943,664.631653 695.692505,653.090027 
	C703.167419,647.275818 711.005737,641.925781 718.730286,636.437134 
	C722.192688,633.976990 725.826782,632.590332 729.651550,635.847656 
	C733.628906,639.234802 736.402893,643.533447 733.942993,648.548645 
	C729.283386,658.048523 725.103149,668.186890 718.507690,676.246521 
	C706.311340,691.150330 692.517883,704.747192 679.138794,719.138062 
M471.333557,858.580322 
	C472.450714,857.809998 473.567841,857.039673 474.684967,856.269348 
	C474.388428,855.807983 474.091919,855.346619 473.795380,854.885315 
	C472.088806,855.855713 470.382263,856.826172 468.512024,858.445618 
	C469.179810,858.565979 469.847626,858.686401 471.333557,858.580322 
M477.959259,855.080933 
	C479.159729,854.367249 480.360199,853.653503 482.283722,852.802002 
	C509.655945,836.095337 537.686401,820.359375 564.197327,802.382568 
	C586.406555,787.322876 606.841309,769.646301 628.709961,752.922180 
	C637.226929,745.253479 645.743896,737.584717 654.260864,729.916016 
	C653.898010,729.523926 653.535156,729.131897 653.172302,728.739807 
	C644.321960,736.426575 635.471619,744.113342 626.003418,752.033875 
	C598.622681,772.089905 571.677856,792.780334 543.716675,811.991394 
	C523.179626,826.101440 501.311188,838.273621 479.437561,851.436829 
	C478.386902,852.081421 477.336243,852.726013 475.534454,853.651672 
	C475.326965,854.247192 475.119476,854.842712 474.912018,855.438232 
	C475.695251,855.362793 476.478485,855.287415 477.959259,855.080933 
M463.017029,862.937439 
	C464.932434,861.819519 466.847870,860.701660 468.763275,859.583801 
	C468.485168,859.091370 468.207062,858.598877 467.928955,858.106445 
	C465.749664,859.234436 463.570404,860.362427 460.753418,861.838257 
	C461.241669,862.263184 461.729919,862.688049 463.017029,862.937439 
M458.268616,862.984375 
	C455.848297,864.329407 453.427979,865.674438 450.299133,867.132324 
	C444.243561,870.273071 438.188019,873.413818 432.132446,876.554565 
	C432.313385,876.939941 432.494354,877.325317 432.675293,877.710693 
	C438.847137,874.725220 445.018982,871.739746 451.905640,868.500854 
	C454.709381,867.024475 457.513092,865.548035 460.566345,863.149963 
	C460.035370,863.060791 459.504364,862.971558 458.268616,862.984375 
z"/>
<path fill="#FDFDFD" opacity="1.000000" stroke="none" 
	d="
M627.796875,395.254700 
	C627.545410,443.703888 627.280090,491.691986 627.097290,539.680420 
	C627.045227,553.343201 626.849976,567.023193 627.433350,580.664856 
	C627.889038,591.320679 626.439941,595.135315 635.855408,606.224976 
	C623.521362,609.381958 591.965454,609.763489 580.408508,606.860046 
	C580.458069,606.426575 580.335754,605.752258 580.586670,605.556580 
	C587.910828,599.846008 589.473450,591.851074 589.482727,583.247742 
	C589.543762,526.422791 589.669067,469.597717 589.566406,412.773041 
	C589.551392,404.469971 588.508606,396.162445 587.798767,387.869232 
	C587.364868,382.799896 584.455017,379.731537 579.857483,379.065643 
	C574.584656,378.301941 570.244751,380.619995 568.576355,385.910370 
	C564.576721,398.592621 560.217773,411.219360 557.224915,424.151093 
	C545.006470,476.945129 533.226562,529.840820 521.362000,582.716309 
	C520.564697,586.269592 519.578125,590.102112 520.149841,593.561768 
	C520.913452,598.182434 523.116394,602.565186 524.764343,607.228943 
	C520.839355,609.215698 475.791077,610.412720 464.463440,608.144470 
	C465.463593,606.505371 466.018036,604.653076 467.261932,603.727173 
	C471.798096,600.350830 472.432526,595.840515 471.620209,590.793884 
	C467.073792,562.548645 462.812653,534.253052 457.865570,506.077942 
	C451.538971,470.046021 444.712738,434.101105 437.973846,398.142670 
	C435.802124,386.554596 433.983063,383.852814 425.394257,377.012177 
	C432.781250,373.167999 472.511780,372.443695 483.178772,376.178650 
	C471.125092,387.298065 477.397827,400.410492 479.401001,412.732269 
	C485.994843,453.291779 493.149384,493.760406 500.155884,534.252258 
	C500.834442,538.173767 501.979340,542.014587 502.907745,545.892822 
	C503.430573,545.867065 503.953400,545.841309 504.476227,545.815552 
	C506.570435,537.375854 508.828339,528.972839 510.731079,520.490112 
	C519.974487,479.281616 529.028809,438.030396 538.387512,396.848297 
	C540.159973,389.048431 538.652527,382.407806 532.976746,375.548706 
	C568.209290,373.774445 602.453857,372.534424 638.474792,375.174927 
	C631.644409,380.983856 628.210815,387.185730 627.796875,395.254700 
z"/>
<path fill="#FDFDFD" opacity="1.000000" stroke="none" 
	d="
M718.081787,512.183838 
	C719.688293,511.029663 721.024414,510.109161 722.948853,508.783356 
	C725.642578,520.351440 725.737915,531.218262 723.152100,542.978027 
	C720.863892,541.466797 719.077759,540.388062 717.400085,539.161011 
	C711.456604,534.814087 704.750366,533.516968 697.560059,534.050476 
	C693.852539,534.325623 691.883240,535.913330 691.921753,540.031555 
	C692.074402,556.359680 692.106201,572.690674 691.953613,589.018494 
	C691.920227,592.589722 693.266785,593.971741 696.609314,594.666321 
	C713.958618,598.271240 727.077026,591.988770 735.039795,576.161377 
	C740.518555,565.271301 742.674561,553.556702 743.929321,541.592896 
	C744.171875,539.280396 744.420471,536.959473 744.850525,534.677185 
	C746.569397,525.556458 751.634644,522.912170 760.632202,526.668823 
	C753.883789,553.408386 755.481018,580.256775 761.141602,608.014282 
	C722.042297,608.014282 683.517029,608.014282 644.424438,608.014282 
	C644.887146,606.500244 644.879456,605.705627 645.266174,605.381470 
	C652.637573,599.202637 653.968872,590.890259 653.957214,581.923706 
	C653.879944,522.437805 653.888428,462.951721 653.865662,403.465698 
	C653.865173,402.132965 653.821655,400.800262 653.805603,399.467468 
	C653.692322,390.084564 651.888489,381.490051 642.765320,375.233765 
	C645.697205,374.735901 648.627502,373.815979 651.561218,373.804871 
	C684.553101,373.679932 717.545532,373.662811 750.537781,373.694000 
	C758.914795,373.701935 760.197998,375.175415 758.149353,383.217194 
	C753.387756,401.908752 748.296326,420.516144 743.483765,439.195068 
	C742.518555,442.941345 742.197998,446.853699 741.415405,451.712952 
	C743.926575,450.290375 745.327087,449.483521 746.739929,448.698883 
	C752.856812,445.301788 759.562134,449.354126 759.501709,456.407318 
	C759.414429,466.595245 745.787903,473.573517 735.674438,468.511719 
	C727.717102,464.529114 723.840820,457.667114 724.102356,449.063019 
	C724.471130,436.933929 725.650818,424.829773 726.465332,412.713745 
	C726.677307,409.559998 726.988281,406.400452 726.964905,403.245728 
	C726.894104,393.678894 722.865051,389.029694 713.275391,388.335083 
	C706.503784,387.844574 699.668091,388.240173 691.997742,388.240173 
	C691.997742,390.853485 691.998169,393.279694 691.997742,395.705902 
	C691.991150,433.863770 691.976990,472.021606 691.984497,510.179474 
	C691.985840,517.174500 692.702576,517.754395 699.654175,518.018250 
	C706.401611,518.274170 712.523376,516.764160 718.081787,512.183838 
z"/>
<path fill="#F8F8F8" opacity="1.000000" stroke="none" 
	d="
M607.768799,637.947266 
	C637.167786,636.392578 678.335815,639.939026 693.605225,645.620911 
	C686.471741,651.721497 679.718811,657.397827 673.079834,663.204468 
	C667.330261,668.233154 660.916931,669.658203 653.280640,668.826111 
	C634.578491,666.788391 615.810181,665.341187 597.056519,663.801270 
	C588.878479,663.129761 585.588318,665.358154 582.684631,673.093628 
	C580.696655,678.389526 579.188721,683.887695 576.887573,689.036804 
	C575.208435,692.794128 572.586365,696.129944 570.384583,699.653687 
	C569.748657,699.308716 569.112732,698.963745 568.476807,698.618774 
	C569.089905,697.263428 569.564270,695.822510 570.338501,694.566528 
	C575.726746,685.826172 577.823486,676.117737 578.590088,666.077698 
	C579.435120,655.009460 573.036987,647.817322 560.873474,647.178894 
	C544.928772,646.341858 528.937378,645.760681 512.977661,645.967224 
	C471.997955,646.497620 431.024963,647.538818 390.048309,648.325745 
	C386.389435,648.395996 382.724304,648.076477 379.060913,647.984070 
	C370.972229,647.779907 367.010345,650.176941 364.172302,657.789673 
	C362.437897,662.442139 361.439606,667.368225 360.092682,672.166382 
	C359.745026,673.404724 359.329468,674.623962 357.799225,675.716736 
	C357.969208,672.706116 357.821472,669.635132 358.379883,666.698364 
	C359.340607,661.645630 360.812439,656.692505 361.937836,651.667969 
	C363.098450,646.486084 366.322998,643.546631 371.458954,642.789917 
	C374.574097,642.330933 377.742218,642.074463 380.891174,642.025269 
	C434.210388,641.191528 487.531372,640.467712 540.849609,639.577271 
	C563.000366,639.207397 585.145508,638.503784 607.768799,637.947266 
M587.078735,649.258606 
	C587.744568,651.912354 588.410339,654.566162 588.816040,656.183228 
	C599.966492,653.294373 610.545349,650.553589 621.215942,647.789062 
	C609.953430,646.505981 598.569702,646.308289 587.157654,647.961182 
	C587.073914,647.973328 587.028503,648.250366 587.078735,649.258606 
z"/>
<path fill="#F8F8F8" opacity="1.000000" stroke="none" 
	d="
M409.136688,320.875854 
	C417.044006,339.494415 410.271301,358.574127 393.649963,365.323639 
	C374.111847,373.257599 354.379883,359.670197 356.000793,339.226288 
	C356.240509,336.202576 357.340271,332.972321 358.935211,330.388977 
	C362.079681,325.295776 370.745178,325.581940 373.716919,330.765747 
	C374.284485,331.755707 373.609863,333.824646 372.939178,335.095428 
	C369.709564,341.214752 369.792694,347.211365 373.125977,353.210846 
	C377.365509,360.841614 385.775757,361.383514 390.922089,354.368225 
	C397.929230,344.816376 398.501251,330.702454 391.406494,321.116577 
	C384.291107,311.502747 376.105072,302.680603 369.003784,293.057281 
	C364.917328,287.519501 360.967926,281.434631 358.859802,274.974976 
	C354.356201,261.175110 361.224731,248.692032 374.899536,244.088745 
	C383.731720,241.115616 392.717133,240.629089 401.919769,242.818008 
	C406.550537,243.919479 407.922333,245.841568 406.531372,250.470581 
	C404.100067,258.561920 402.104828,266.784302 399.864319,275.186188 
	C401.036072,275.710358 402.280823,275.936310 403.023773,276.670227 
	C404.457153,278.086090 406.986572,280.508667 406.608246,281.233643 
	C405.595215,283.174866 403.513580,285.181793 401.443359,285.817780 
	C397.174622,287.129150 393.023987,284.153778 392.730835,279.359528 
	C392.419006,274.259003 393.119751,269.094055 393.422363,263.959839 
	C393.529846,262.136475 393.914307,260.320648 393.913574,258.501495 
	C393.911957,254.635895 392.145355,251.607437 388.501556,250.342178 
	C384.753113,249.040604 381.132904,249.880020 378.640167,253.185028 
	C373.561554,259.918335 371.406219,267.746582 375.812469,275.085266 
	C381.342285,284.295349 388.355133,292.616394 394.746857,301.307190 
	C399.470520,307.729858 404.224457,314.130219 409.136688,320.875854 
z"/>
<path fill="#F9F9F9" opacity="1.000000" stroke="none" 
	d="
M463.704346,301.591858 
	C464.574127,308.515381 463.812531,314.926666 459.969452,320.182037 
	C456.388000,325.079742 451.734467,329.193481 447.299652,333.922302 
	C451.663361,340.824249 456.154663,347.927979 460.685638,355.094482 
	C453.201324,358.309479 447.618652,356.654633 443.902802,350.543976 
	C440.668579,345.225281 437.384521,339.936920 434.122467,334.635162 
	C433.362976,334.752563 432.603455,334.869934 431.843933,334.987305 
	C431.301727,339.062988 429.929932,343.234070 430.385590,347.194946 
	C431.415771,356.150604 433.464142,357.667450 420.675568,357.202606 
	C419.693451,357.166870 418.720673,356.874939 417.210724,356.607788 
	C417.101196,354.889343 416.894287,353.131317 416.891449,351.372986 
	C416.855072,328.908020 416.933594,306.442322 416.759735,283.978577 
	C416.725647,279.579559 417.926514,277.518555 422.645142,277.798706 
	C427.441345,278.083405 432.298279,277.477112 437.078857,277.868530 
	C451.862213,279.078918 460.351440,286.670380 463.704346,301.591858 
M447.912262,318.243073 
	C448.704132,316.605713 449.637482,315.020630 450.265076,313.322540 
	C454.641541,301.481506 448.389526,287.791016 437.152893,284.490448 
	C432.365631,283.084259 431.050201,283.927917 430.995575,288.919647 
	C430.893494,298.245697 430.964844,307.573639 430.964203,316.900787 
	C430.963959,320.326538 430.964203,323.752289 430.964203,327.449677 
	C438.401520,326.817444 443.642090,324.127686 447.912262,318.243073 
z"/>
<path fill="#F6F6F6" opacity="1.000000" stroke="none" 
	d="
M570.473633,666.594116 
	C570.805786,670.622742 568.407104,669.560242 566.552795,669.245789 
	C548.702454,666.218506 530.772888,663.581848 513.029785,660.017883 
	C488.070648,655.004456 462.811768,654.783325 437.555328,654.043396 
	C431.909332,653.877991 426.268402,653.507019 420.629395,653.161926 
	C419.459015,653.090332 418.307312,652.713867 417.175354,651.476257 
	C418.357758,651.330566 419.539154,651.066040 420.722656,651.056335 
	C462.495483,650.713928 504.268372,650.363037 546.041809,650.121094 
	C550.514587,650.095215 555.002563,650.614319 559.463562,651.073486 
	C567.978210,651.950012 569.942749,654.073853 570.491760,662.686462 
	C570.565552,663.844360 570.478638,665.012573 570.473633,666.594116 
z"/>
<path fill="#E8E8E8" opacity="1.000000" stroke="none" 
	d="
M501.685608,701.739075 
	C508.002960,701.893616 513.849792,702.043213 519.696594,702.192871 
	C519.682251,702.720581 519.667908,703.248230 519.653503,703.775940 
	C473.951538,703.775940 428.249573,703.775940 382.547607,703.775940 
	C382.537506,703.380493 382.527435,702.985046 382.517334,702.589600 
	C395.607666,702.302734 408.696899,701.940002 421.788635,701.750366 
	C434.941742,701.559814 448.097321,701.467163 461.251831,701.468445 
	C474.572937,701.469788 487.894012,701.638733 501.685608,701.739075 
z"/>
<path fill="#E8E8E8" opacity="1.000000" stroke="none" 
	d="
M557.999756,676.794800 
	C548.656799,673.997559 539.695618,671.320129 530.734497,668.642700 
	C530.803772,668.130493 530.873108,667.618286 530.942383,667.106079 
	C532.882263,667.220459 534.863647,667.119812 536.754944,667.485596 
	C545.872925,669.249146 554.962830,671.157532 564.070251,672.976929 
	C571.489807,674.459045 572.144714,675.319702 571.272400,683.051514 
	C571.068542,684.858398 570.720764,686.650940 570.375244,688.437622 
	C570.331238,688.665405 569.898010,688.817932 568.760071,689.661011 
	C569.442139,681.654907 565.683594,677.633911 557.999756,676.794800 
z"/>
<path fill="#050505" opacity="1.000000" stroke="none" 
	d="
M340.097778,529.059692 
	C345.965820,497.802551 352.585266,467.162598 360.735992,436.877960 
	C361.299255,436.855743 361.862488,436.833496 362.425751,436.811279 
	C363.534119,442.343140 364.759796,447.854462 365.730530,453.410370 
	C369.964172,477.640991 374.139404,501.881836 378.298309,526.125427 
	C379.256165,531.709106 378.654144,532.297974 372.924500,532.935303 
	C361.857910,534.166321 350.803009,535.502319 339.128845,536.866577 
	C339.441895,534.251404 339.727264,531.867126 340.097778,529.059692 
z"/>
<path fill="#020202" opacity="1.000000" stroke="none" 
	d="
M873.184692,377.880890 
	C898.936890,416.222107 892.120972,472.653687 858.303284,501.707489 
	C848.209839,510.379059 836.336670,515.330994 823.188538,517.152344 
	C815.049194,518.279907 814.118774,517.397766 814.091431,509.328369 
	C814.066101,501.834198 814.044678,494.339996 814.041870,486.845795 
	C814.025452,442.879059 814.014771,398.912292 814.002380,354.945557 
	C814.001465,351.806946 814.002258,348.668304 814.002258,344.920044 
	C839.322205,346.810455 858.636536,357.705383 873.184692,377.880890 
z"/>
<path fill="#040404" opacity="1.000000" stroke="none" 
	d="
M959.461975,603.648682 
	C970.004456,623.629333 966.465027,651.189697 951.642761,667.440063 
	C949.312012,669.995361 947.076416,670.262634 944.901001,667.843689 
	C940.390381,662.828064 935.141968,658.145691 931.912781,652.367432 
	C920.328918,631.639160 909.454651,610.514221 898.336914,589.526062 
	C897.725159,588.371277 897.338440,587.097290 896.696167,585.505005 
	C897.728210,585.115356 898.557495,584.609131 899.436279,584.499329 
	C915.521118,582.489075 931.505920,582.525085 945.949219,590.936401 
	C951.060791,593.913330 954.863708,599.137451 959.461975,603.648682 
z"/>
<path fill="#060606" opacity="1.000000" stroke="none" 
	d="
M813.592529,593.465454 
	C813.551025,573.603821 813.551025,554.208679 813.551025,534.813599 
	C814.110352,534.595947 814.669678,534.378296 815.229004,534.160645 
	C833.623352,550.097290 844.385315,571.676575 857.134094,592.118042 
	C844.784607,602.933777 832.689514,613.526794 819.400757,625.165100 
	C817.713928,621.511414 815.472046,618.543335 815.038940,615.331421 
	C814.085876,608.263672 814.046387,601.072693 813.592529,593.465454 
z"/>
<path fill="#222222" opacity="1.000000" stroke="none" 
	d="
M480.036072,851.309448 
	C501.311188,838.273621 523.179626,826.101440 543.716675,811.991394 
	C571.677856,792.780334 598.622681,772.089905 626.617310,752.063599 
	C627.508057,752.438354 627.784912,752.783386 628.061768,753.128418 
	C606.841309,769.646301 586.406555,787.322876 564.197327,802.382568 
	C537.686401,820.359375 509.655945,836.095337 481.566040,852.439941 
	C480.577576,851.821777 480.306824,851.565613 480.036072,851.309448 
z"/>
<path fill="#353535" opacity="1.000000" stroke="none" 
	d="
M628.385864,753.025330 
	C627.784912,752.783386 627.508057,752.438354 626.926270,751.946655 
	C635.471619,744.113342 644.321960,736.426575 653.172302,728.739807 
	C653.535156,729.131897 653.898010,729.523926 654.260864,729.916016 
	C645.743896,737.584717 637.226929,745.253479 628.385864,753.025330 
z"/>
<path fill="#454545" opacity="1.000000" stroke="none" 
	d="
M451.190857,868.754272 
	C445.018982,871.739746 438.847137,874.725220 432.675293,877.710693 
	C432.494354,877.325317 432.313385,876.939941 432.132446,876.554565 
	C438.188019,873.413818 444.243561,870.273071 450.681671,867.511475 
	C451.106384,868.178467 451.148590,868.466309 451.190857,868.754272 
z"/>
<path fill="#2D2D2D" opacity="1.000000" stroke="none" 
	d="
M451.548218,868.627563 
	C451.148590,868.466309 451.106384,868.178467 451.035950,867.455017 
	C453.427979,865.674438 455.848297,864.329407 458.767395,863.207397 
	C459.616425,863.644226 459.966644,863.857910 460.316833,864.071655 
	C457.513092,865.548035 454.709381,867.024475 451.548218,868.627563 
z"/>
<path fill="#222222" opacity="1.000000" stroke="none" 
	d="
M461.391144,861.490417 
	C463.570404,860.362427 465.749664,859.234436 467.928955,858.106445 
	C468.207062,858.598877 468.485168,859.091370 468.763275,859.583801 
	C466.847870,860.701660 464.932434,861.819519 462.459961,862.594482 
	C461.732330,861.997803 461.561737,861.744080 461.391144,861.490417 
z"/>
<path fill="#222222" opacity="1.000000" stroke="none" 
	d="
M481.204498,852.508911 
	C480.360199,853.653503 479.159729,854.367249 477.416077,854.659790 
	C476.677094,853.949341 476.481323,853.659973 476.285583,853.370605 
	C477.336243,852.726013 478.386902,852.081421 479.736816,851.373169 
	C480.306824,851.565613 480.577576,851.821777 481.204498,852.508911 
z"/>
<path fill="#222222" opacity="1.000000" stroke="none" 
	d="
M468.675690,857.796631 
	C470.382263,856.826172 472.088806,855.855713 473.795380,854.885315 
	C474.091919,855.346619 474.388428,855.807983 474.684967,856.269348 
	C473.567841,857.039673 472.450714,857.809998 470.511963,858.354675 
	C469.352112,858.018250 469.013916,857.907471 468.675690,857.796631 
z"/>
<path fill="#222222" opacity="1.000000" stroke="none" 
	d="
M477.067291,854.725342 
	C476.478485,855.287415 475.695251,855.362793 474.911987,855.438232 
	C475.119476,854.842712 475.326965,854.247192 475.910034,853.511108 
	C476.481323,853.659973 476.677094,853.949341 477.067291,854.725342 
z"/>
<path fill="#222222" opacity="1.000000" stroke="none" 
	d="
M470.102875,858.467896 
	C469.847626,858.686401 469.179810,858.565979 468.593872,858.121094 
	C469.013916,857.907471 469.352112,858.018250 470.102875,858.467896 
z"/>
<path fill="#222222" opacity="1.000000" stroke="none" 
	d="
M462.060547,862.682251 
	C461.729919,862.688049 461.241669,862.263184 461.072266,861.664307 
	C461.561737,861.744080 461.732330,861.997803 462.060547,862.682251 
z"/>
<path fill="#222222" opacity="1.000000" stroke="none" 
	d="
M460.441589,863.610779 
	C459.966644,863.857910 459.616425,863.644226 459.119812,863.156433 
	C459.504364,862.971558 460.035370,863.060791 460.441589,863.610779 
z"/>
<path fill="#111111" opacity="1.000000" stroke="none" 
	d="
M587.021973,648.831177 
	C587.028503,648.250366 587.073914,647.973328 587.157654,647.961182 
	C598.569702,646.308289 609.953430,646.505981 621.215942,647.789062 
	C610.545349,650.553589 599.966492,653.294373 588.816040,656.183228 
	C588.410339,654.566162 587.744568,651.912354 587.021973,648.831177 
z"/>
<path fill="#050505" opacity="1.000000" stroke="none" 
	d="
M447.718750,318.558136 
	C443.642090,324.127686 438.401520,326.817444 430.964203,327.449677 
	C430.964203,323.752289 430.963959,320.326538 430.964203,316.900787 
	C430.964844,307.573639 430.893494,298.245697 430.995575,288.919647 
	C431.050201,283.927917 432.365631,283.084259 437.152893,284.490448 
	C448.389526,287.791016 454.641541,301.481506 450.265076,313.322540 
	C449.637482,315.020630 448.704132,316.605713 447.718750,318.558136 
z"/>
</svg>